<?xml version="1.0" encoding="UTF-8"?>
<svg id="Desenho" xmlns="http://www.w3.org/2000/svg" version="1.1" xmlns:xlink="http://www.w3.org/1999/xlink" viewBox="0 0 210 210">
  <!-- Generator: Adobe Illustrator 29.5.1, SVG Export Plug-In . SVG Version: 2.1.0 Build 141)  -->
  <defs>
    <style>
      .st0 {
        fill: url(#New_Gradient_Swatch_41);
      }

      .st1 {
        fill: url(#New_Gradient_Swatch_5);
      }

      .st2 {
        fill: #683a0c;
      }

      .st3 {
        fill: url(#New_Gradient_Swatch_44);
      }

      .st4 {
        fill: url(#radial-gradient);
      }

      .st5 {
        fill: url(#New_Gradient_Swatch_45);
      }

      .st6 {
        fill: #ffff78;
      }

      .st7 {
        fill: #64320a;
      }

      .st8 {
        fill: url(#New_Gradient_Swatch_43);
      }

      .st9 {
        fill: #fff;
        stroke: #64320a;
        stroke-linecap: round;
        stroke-linejoin: round;
        stroke-width: 1.37px;
      }

      .st10 {
        fill: url(#New_Gradient_Swatch_6);
      }

      .st11 {
        fill: #ffff3c;
      }

      .st12 {
        fill: url(#New_Gradient_Swatch_42);
      }

      .st13 {
        fill: #916432;
      }

      .st14 {
        fill: url(#New_Gradient_Swatch_4);
      }

      .st15 {
        fill: #7d4b23;
      }
    </style>
    <linearGradient id="New_Gradient_Swatch_4" data-name="New Gradient Swatch 4" x1="105" y1="0" x2="105" y2="210" gradientTransform="translate(193.6 -14.17) rotate(81.63)" gradientUnits="userSpaceOnUse">
      <stop offset="0" stop-color="#b97300"/>
      <stop offset="1" stop-color="#7d4623"/>
    </linearGradient>
    <linearGradient id="New_Gradient_Swatch_6" data-name="New Gradient Swatch 6" x1="105" y1="6.38" x2="105" y2="202.51" gradientUnits="userSpaceOnUse">
      <stop offset="0" stop-color="#ebc896"/>
      <stop offset="1" stop-color="#b96e00"/>
    </linearGradient>
    <radialGradient id="New_Gradient_Swatch_5" data-name="New Gradient Swatch 5" cx="99.78" cy="97.51" fx="99.78" fy="97.51" r="64.58" gradientTransform="translate(-31.06 -27.97) scale(1.36)" gradientUnits="userSpaceOnUse">
      <stop offset="0" stop-color="#ffffbe"/>
      <stop offset=".54" stop-color="#fffebc"/>
      <stop offset=".74" stop-color="#fffcb5"/>
      <stop offset=".87" stop-color="#fff9a9"/>
      <stop offset=".99" stop-color="#fff598"/>
      <stop offset="1" stop-color="#fff596"/>
    </radialGradient>
    <linearGradient id="New_Gradient_Swatch_41" data-name="New Gradient Swatch 4" x1="97.6" y1="25.6" x2="97.6" y2="47.55" gradientTransform="matrix(1,0,0,1,0,0)" xlink:href="#New_Gradient_Swatch_4"/>
    <linearGradient id="New_Gradient_Swatch_42" data-name="New Gradient Swatch 4" x1="112.47" y1="25.6" x2="112.47" y2="47.55" gradientTransform="matrix(1,0,0,1,0,0)" xlink:href="#New_Gradient_Swatch_4"/>
    <linearGradient id="New_Gradient_Swatch_43" data-name="New Gradient Swatch 4" x1="37.27" y1="94.17" x2="37.27" y2="116.49" gradientTransform="matrix(1,0,0,1,0,0)" xlink:href="#New_Gradient_Swatch_4"/>
    <linearGradient id="New_Gradient_Swatch_44" data-name="New Gradient Swatch 4" x1="105.05" y1="162.08" x2="105.05" y2="184.39" gradientTransform="matrix(1,0,0,1,0,0)" xlink:href="#New_Gradient_Swatch_4"/>
    <linearGradient id="New_Gradient_Swatch_45" data-name="New Gradient Swatch 4" x1="172.7" y1="94.21" x2="172.7" y2="116.53" gradientTransform="matrix(1,0,0,1,0,0)" xlink:href="#New_Gradient_Swatch_4"/>
    <radialGradient id="radial-gradient" cx="98.04" cy="97.55" fx="98.04" fy="97.55" r="4.13" gradientTransform="translate(-27.8 -27.12) scale(1.35)" gradientUnits="userSpaceOnUse">
      <stop offset="0" stop-color="#643c0a"/>
      <stop offset=".34" stop-color="#60390b"/>
      <stop offset=".67" stop-color="#54320e"/>
      <stop offset="1" stop-color="#412814"/>
    </radialGradient>
  </defs>
  <circle class="st14" cx="105" cy="105" r="105" transform="translate(-14.17 193.6) rotate(-81.63)"/>
  <path class="st10" d="M203.23,105c0,54.25-43.98,98.23-98.22,98.23S6.77,159.25,6.77,105,50.75,6.77,105,6.77s98.22,43.98,98.22,98.23Z"/>
  <path class="st1" d="M193.06,105c0,48.64-39.43,88.07-88.06,88.07S16.94,153.64,16.94,105,56.36,16.93,105,16.93s88.06,39.43,88.06,88.07Z"/>
  <g>
    <polyline class="st6" points="88.05 70.27 53.31 105 88.05 139.73 105 122.78 87.22 105 105 87.22 88.05 70.27"/>
    <polyline class="st6" points="121.95 70.27 105 87.22 122.78 105 105 122.78 121.95 139.73 156.69 105 121.95 70.27"/>
    <polyline class="st11" points="105 87.22 87.22 105 105 122.78 122.78 105 105 87.22"/>
  </g>
  <g>
    <path class="st0" d="M92.24,47.55v-1.11c3.12,0,4.11-.31,4.11-2.41v-12.55c0-1.92-.68-2.38-4.11-2.38v-1.24c2.16,0,4.7-.25,6.09-2.26h.87v18.42c0,2.1.99,2.41,3.77,2.41v1.11h-10.73Z"/>
    <path class="st12" d="M114.4,44.59c3.18,0,3.4-.12,4.14-3.46h.93l-.43,6.43h-13.57v-1.42c0-.87,1.67-2.91,3-4.61,3.65-4.67,7.64-6.52,7.64-10.32,0-3.37-1.64-4.54-4.11-4.54s-4.45,2.19-4.45,3.59c0,.22.12.28.28.28.19,0,.43-.09.59-.09,1.24,0,2.07.87,2.07,2.1,0,1.08-.86,2.01-1.98,2.01-1.85,0-2.44-1.39-2.44-3.06,0-3.06,2.84-5.87,6.61-5.87s6.77,2.35,6.77,6.06c0,4.85-9.15,7.23-11.56,12.92h6.52Z"/>
    <path class="st8" d="M37.19,94.17c4.79,0,6.86,6.09,6.86,10.39,0,5.63-2.91,11.93-8.66,11.93-2.16,0-4.24-1.33-4.24-3.65,0-1.08.93-2.01,1.98-2.01,1.21,0,2.04.65,2.04,1.89,0,1.42-1.42,1.79-1.42,2.26,0,.4,1.61.59,1.89.59,4.54,0,5.07-5.87,5.07-9.65,0-.49,0-.83-.06-1.42h-.06c-.49,1.82-2.47,3.34-4.36,3.34-3.22,0-5.75-3.12-5.75-6.8,0-3.86,2.66-6.86,6.71-6.86ZM36.82,95.1c-2.94,0-3.25,3.74-3.25,5.84,0,2.35.03,5.78,3.28,5.78,2.75,0,3.93-3.37,3.93-6.12,0-2.57-.8-5.5-3.96-5.5Z"/>
    <path class="st3" d="M105.12,184.39c-4.79,0-6.86-6.09-6.86-10.39,0-5.63,2.91-11.93,8.65-11.93,2.16,0,4.24,1.33,4.24,3.65,0,1.08-.93,2.01-1.98,2.01-1.21,0-2.04-.65-2.04-1.89,0-1.42,1.42-1.79,1.42-2.26,0-.4-1.61-.59-1.89-.59-4.54,0-5.07,5.87-5.07,9.64,0,.49,0,.83.06,1.42h.06c.49-1.82,2.47-3.34,4.36-3.34,3.22,0,5.75,3.12,5.75,6.8,0,3.86-2.66,6.86-6.71,6.86ZM105.49,183.47c2.94,0,3.25-3.74,3.25-5.84,0-2.35-.03-5.78-3.28-5.78-2.75,0-3.93,3.37-3.93,6.12,0,2.57.8,5.5,3.96,5.5Z"/>
    <path class="st5" d="M172.16,116.53c-3.74,0-6.28-2.16-6.28-5.04,0-1.24.62-2.75,2.26-2.75,1.08,0,2.04.87,2.04,1.98,0,1.33-1.11,1.79-1.67,1.79s-.93-.03-1.39-.12c.03.87,1.48,3.22,4.73,3.22s4.33-2.04,4.33-5.1-1.17-4.82-4.57-4.82c-.43,0-.93.12-1.39.12-.49,0-.99-.09-.99-.71,0-.56.46-.74.93-.74.43,0,.89.09,1.33.09,3.12,0,4.23-2.01,4.23-4.92,0-2.69-1.11-4.39-4.02-4.39-1.85,0-3.46.74-3.77,2.72.15-.03.34-.06.55-.06,1.45,0,1.98,1.24,1.98,1.98,0,.83-.68,1.79-1.82,1.79-1.42,0-2.13-1.08-2.13-2.41,0-2.81,2.2-4.95,5.56-4.95,3.77,0,6.8,2.1,6.8,5.32,0,3.71-4.27,5.07-6.52,5.5v.03c4.05.22,7.17,2.47,7.17,5.47,0,3.52-3.25,6-7.36,6Z"/>
  </g>
  <g>
    <path class="st13" d="M124.06,33.87c.1,3.65-1.05,7.97-2.97,11.08-.11-3.65,1.05-7.97,2.97-11.08Z"/>
    <path class="st13" d="M141.82,41.23c-.84,3.55-3.08,7.43-5.73,9.93.84-3.55,3.08-7.43,5.73-9.93Z"/>
    <path class="st13" d="M157.07,52.93c-1.73,3.21-4.89,6.38-8.11,8.11,1.73-3.22,4.9-6.38,8.11-8.11Z"/>
    <path class="st13" d="M168.77,68.18c-2.51,2.65-6.38,4.9-9.93,5.73,2.5-2.66,6.38-4.89,9.93-5.73Z"/>
    <path class="st13" d="M176.13,85.94c-3.11,1.91-7.43,3.08-11.08,2.97,3.11-1.92,7.43-3.07,11.08-2.97Z"/>
    <path class="st13" d="M176.13,124.06c-3.65.1-7.97-1.05-11.08-2.97,3.65-.11,7.97,1.06,11.08,2.97Z"/>
    <path class="st13" d="M168.77,141.82c-3.55-.84-7.43-3.08-9.93-5.74,3.55.84,7.43,3.08,9.93,5.74Z"/>
    <path class="st13" d="M157.07,157.07c-3.21-1.73-6.38-4.89-8.11-8.11,3.21,1.73,6.38,4.9,8.11,8.11Z"/>
    <path class="st13" d="M141.82,168.77c-2.65-2.51-4.9-6.38-5.73-9.93,2.66,2.5,4.89,6.38,5.73,9.93Z"/>
    <path class="st13" d="M124.06,176.13c-1.91-3.11-3.08-7.43-2.97-11.08,1.92,3.11,3.07,7.43,2.97,11.08Z"/>
    <path class="st13" d="M85.94,176.13c-.1-3.65,1.05-7.97,2.97-11.08.11,3.65-1.05,7.97-2.97,11.08Z"/>
    <path class="st13" d="M68.18,168.77c.84-3.55,3.08-7.43,5.73-9.93-.84,3.55-3.08,7.43-5.73,9.93Z"/>
    <path class="st13" d="M52.93,157.07c1.73-3.21,4.9-6.38,8.11-8.11-1.73,3.21-4.9,6.37-8.11,8.11Z"/>
    <path class="st13" d="M41.23,141.82c2.51-2.65,6.38-4.89,9.93-5.73-2.5,2.66-6.38,4.89-9.93,5.73Z"/>
    <path class="st13" d="M33.87,124.06c3.11-1.91,7.43-3.08,11.08-2.97-3.11,1.92-7.43,3.07-11.08,2.97Z"/>
    <path class="st13" d="M33.87,85.94c3.65-.1,7.97,1.05,11.08,2.97-3.65.11-7.97-1.06-11.08-2.97Z"/>
    <path class="st13" d="M41.23,68.18c3.55.84,7.43,3.08,9.93,5.74-3.55-.84-7.42-3.08-9.93-5.74Z"/>
    <path class="st13" d="M52.93,52.93c3.21,1.73,6.38,4.9,8.11,8.11-3.21-1.73-6.37-4.9-8.11-8.11Z"/>
    <path class="st13" d="M68.18,41.23c2.65,2.51,4.89,6.38,5.73,9.93-2.66-2.5-4.89-6.38-5.73-9.93Z"/>
    <path class="st13" d="M85.94,33.87c1.91,3.11,3.08,7.43,2.97,11.08-1.92-3.1-3.07-7.43-2.97-11.08Z"/>
  </g>
  <g>
    <path class="st15" d="M73.95,151.87c.56,0,.91-.2.91-1.11v-3.26c0-.55-.1-.6-.91-.6v-.28h2.02l1.11,3.95h.02l1.17-3.95h1.95v.28c-.77,0-.9.09-.9.54v3.81c0,.54.21.58.91.61v.28h-2.54v-.28c.7-.02.9-.08.9-.52v-4.44h-.1l-1.56,5.39h-.15l-1.49-5.39h-.12v3.99c0,.74.27.9.86.97v.28h-2.09v-.28Z"/>
    <path class="st15" d="M84.23,151.12c0,.41-.08,1.13-.63,1.13s-.61-.39-.63-.86h-.02c-.27.51-.7.86-1.3.86-.49,0-.93-.34-.93-.85,0-.96,1.42-1.17,2.24-1.47v-.41c0-.58-.13-.93-.79-.93-.22,0-.64.06-.74.26.23.07.38.24.38.48,0,.28-.21.47-.49.47-.25,0-.44-.26-.44-.51,0-.56.67-.91,1.35-.91.6,0,1.33.18,1.33.85v2.02c0,.38,0,.54.18.54.27,0,.28-.51.3-.67h.18ZM82.97,150.18c-.53.18-1.52.51-1.52,1.2,0,.31.25.5.48.5.62,0,1.03-.52,1.03-1.3v-.39ZM82.78,147.01c.17-.17.23-.27.41-.27.14,0,.28.07.28.24,0,.2-.17.29-.31.38l-1.1.69h-.31l1.04-1.04Z"/>
    <path class="st15" d="M87.89,148.41h.15c-.11.5-.16.9-.16,1.36v3.26c0,.49.06.53.54.53v.28h-1.79v-.28c.53,0,.65-.06.65-.34v-1.76h-.02c-.24.48-.55.8-1.15.8-.99,0-1.49-1.09-1.49-1.95,0-.91.74-1.93,1.72-1.93.47,0,.94.37,1.1.8l.45-.77ZM86.3,148.64c-.78,0-.94.93-.94,1.65,0,.55.02,1.7.87,1.7.61,0,1.05-.57,1.05-1.69,0-1.2-.34-1.66-.98-1.66Z"/>
    <path class="st15" d="M90.75,148.47l1.36-.09v3.04c0,.36.1.44.56.44v.26c-.39,0-.78.06-1.17.14v-1.09h-.02c-.18.55-.61,1.09-1.29,1.09s-.93-.42-.93-1.04v-2.03c0-.35-.17-.42-.58-.42v-.29l1.18-.09v2.68c0,.47.11.81.57.81.8,0,1.08-1.29,1.08-2.05v-.64c0-.37-.21-.41-.77-.41v-.29Z"/>
    <path class="st15" d="M92.99,152.15v-.28c.56,0,.64-.06.64-.56v-1.97c0-.54-.09-.56-.69-.57v-.28l1.29-.12v3.01c0,.39.06.45.57.48v.28h-1.8ZM93.93,147.51c-.26,0-.48-.21-.48-.48s.21-.47.48-.47.47.21.47.47-.21.48-.47.48Z"/>
    <path class="st15" d="M96.82,152.15h-1.64v-.28c.41,0,.58-.05.58-.47v-2.1c0-.46-.05-.51-.64-.52v-.27l1.21-.13v1.09h.01c.24-.63.54-1.09,1.16-1.09s1.04.43,1.04,1.36v1.83c0,.26.26.3.52.3v.28h-1.59v-.28c.37,0,.47-.05.47-.45v-1.98c0-.4-.25-.67-.56-.67-.76,0-1.03,1.15-1.03,1.79v.86c0,.38.04.46.46.46v.28Z"/>
    <path class="st15" d="M102.98,151.12c0,.41-.08,1.13-.63,1.13s-.61-.39-.63-.86h-.02c-.27.51-.7.86-1.3.86-.49,0-.93-.34-.93-.85,0-.96,1.42-1.17,2.24-1.47v-.41c0-.58-.13-.93-.79-.93-.22,0-.64.06-.74.26.23.07.38.24.38.48,0,.28-.21.47-.49.47-.25,0-.44-.26-.44-.51,0-.56.67-.91,1.35-.91.6,0,1.33.18,1.33.85v2.02c0,.38,0,.54.18.54.27,0,.28-.51.3-.67h.18ZM101.71,150.18c-.53.18-1.52.51-1.52,1.2,0,.31.25.5.48.5.62,0,1.03-.52,1.03-1.3v-.39Z"/>
    <path class="st15" d="M108.99,152.15c-.38,0-.74.03-1.12.14v-1.06h-.02c-.03.31-.38,1.03-1.16,1.03s-1.46-.84-1.46-1.91c0-1.23.87-1.97,1.5-1.97s1.04.54,1.12.97h.02v-1.95c0-.44-.09-.5-.76-.53v-.27l1.39-.1v5.02c0,.24.07.34.49.34v.28ZM106.79,152.01c.54,0,1.07-.54,1.07-1.69,0-1.22-.58-1.69-1.03-1.69s-.87.43-.87,1.69.38,1.69.83,1.69Z"/>
    <path class="st15" d="M111.18,148.38c1,0,1.63.98,1.63,1.94s-.63,1.94-1.63,1.94-1.63-.98-1.63-1.94.63-1.94,1.63-1.94ZM111.18,152c.86,0,.9-.9.9-1.68s-.04-1.68-.9-1.68-.9.9-.9,1.68.04,1.68.9,1.68Z"/>
    <path class="st15" d="M117.42,148.81h-1.13v2.37c0,.39.14.65.54.65.63,0,.7-.54.76-1.1h.18c0,.92-.25,1.52-1.15,1.52-.08,0-.9-.07-.9-.96v-2.49h-.62v-.32c.8-.11.85-.91.97-1.55h.21v1.55h1.13v.32Z"/>
    <path class="st15" d="M118.98,150.37c0,.85.31,1.56,1.22,1.56.54,0,.79-.35,1.11-.77l.22.11c-.34.62-.79.99-1.52.99-1.05,0-1.76-.8-1.76-1.83s.66-2.05,1.69-2.05,1.57,1.03,1.57,1.99h-2.52ZM120.26,150.08c.35,0,.5-.08.5-.47,0-.54-.25-.97-.83-.97s-.95.57-.95,1.44h1.28Z"/>
    <path class="st15" d="M122.01,152.15v-.28c.41,0,.58-.05.58-.47v-2.1c0-.46-.05-.51-.64-.52v-.27l1.21-.13v1.09h.01c.24-.63.54-1.09,1.16-1.09.54,0,.92.31.98,1.03h.01c.21-.56.58-1.03,1.2-1.03s1.04.43,1.04,1.36v1.83c0,.26.26.3.46.3v.28h-1.59v-.28c.43,0,.53-.05.53-.45v-1.98c0-.4-.25-.67-.56-.67-.76,0-1.04,1.15-1.04,1.79v.86c0,.42.26.46.46.46v.28h-1.58v-.28c.42,0,.52-.05.52-.45v-1.98c0-.4-.25-.67-.56-.67-.76,0-1.03,1.15-1.03,1.79v.86c0,.38.04.46.46.46v.28h-1.64Z"/>
    <path class="st15" d="M130.22,153.84h-1.89v-.26c.51-.04.63-.06.63-.51v-3.78c0-.44-.09-.5-.64-.53v-.27l1.23-.1v1.06h.02v-.03c.13-.48.51-1.03,1.08-1.03.98,0,1.53,1.06,1.53,1.93,0,1.03-.73,1.95-1.46,1.95s-1-.56-1.15-.95h-.02v1.65c0,.54.05.61.67.61v.26ZM130.57,148.64c-.45,0-1.01.56-1.01,1.72,0,1.02.53,1.61,1.01,1.61.68,0,.9-.44.9-1.61,0-1.35-.45-1.72-.9-1.72Z"/>
    <path class="st15" d="M134.39,148.38c1,0,1.63.98,1.63,1.94s-.63,1.94-1.63,1.94-1.63-.98-1.63-1.94.63-1.94,1.63-1.94ZM134.39,152c.86,0,.9-.9.9-1.68s-.04-1.68-.9-1.68-.9.9-.9,1.68.04,1.68.9,1.68Z"/>
  </g>
  <g>
    <path class="st2" d="M69.63,148.79c-.08,0-.15-.03-.22-.08-.15-.12-.17-.34-.05-.48l35.33-43.45c.12-.15.34-.17.48-.05.15.12.17.34.05.48l-35.33,43.45c-.07.08-.17.13-.27.13Z"/>
    <g>
      <path class="st7" d="M104.33,105c-1.06-3.58-1.54-7.16-1.86-10.74-.27-3.58-.48-7.16.23-10.74.31-1.79.68-3.58.86-5.37.18-1.79.16-3.58.12-5.37-.11-3.58-.38-7.16-1.23-10.74-.33-1.42.54-2.84,1.96-3.17,1.42-.33,2.84.54,3.17,1.96.1.41.09.83,0,1.21-.84,3.58-1.11,7.16-1.23,10.74-.04,1.79-.07,3.58.12,5.37.17,1.79.55,3.58.85,5.37.72,3.58.5,7.16.23,10.74-.32,3.58-.8,7.16-1.86,10.74-.11.38-.51.6-.89.48-.24-.07-.42-.26-.48-.48Z"/>
      <path class="st9" d="M109.88,57.11c0,2.68-2.18,4.86-4.86,4.86s-4.86-2.18-4.86-4.86,2.18-4.86,4.86-4.86,4.86,2.18,4.86,4.86Z"/>
    </g>
    <g>
      <path class="st7" d="M104.66,104.41l34.71-23.23c1.18-.79,2.78-.47,3.57.71.79,1.18.47,2.78-.71,3.57-.06.04-.13.08-.2.12l-36.66,20.01c-.33.18-.75.06-.93-.27-.17-.31-.07-.7.22-.9Z"/>
      <path class="st9" d="M145.57,83.38c0,2.68-2.18,4.86-4.86,4.86s-4.86-2.18-4.86-4.86,2.18-4.86,4.86-4.86,4.86,2.18,4.86,4.86Z"/>
    </g>
    <path class="st4" d="M110.62,105.05c0,3.09-2.51,5.6-5.6,5.6s-5.6-2.51-5.6-5.6,2.51-5.6,5.6-5.6,5.6,2.51,5.6,5.6Z"/>
  </g>
</svg>